HIERARCHY
ROOT hip
{
  OFFSET 0 0 0
  CHANNELS 6 Xposition Yposition Zposition Zrotation Yrotation Xrotation
  JOINT abdomen
  {
    OFFSET 0 20.6881 -0.73152
    CHANNELS 3 Zrotation Xrotation Yrotation
    JOINT chest
    {
      OFFSET 0 11.7043 -0.48768
      CHANNELS 3 Zrotation Xrotation Yrotation
      JOINT neck
      {
        OFFSET 0 22.1894 -2.19456
        CHANNELS 3 Zrotation Xrotation Yrotation
        JOINT head
        {
          OFFSET -0.24384 7.07133 1.2192
          CHANNELS 3 Zrotation Xrotation Yrotation
          JOINT leftEye
          {
            OFFSET 4.14528 8.04674 8.04672
            CHANNELS 3 Zrotation Xrotation Yrotation
            End Site
            {
              OFFSET 1 0 0
            }
          }
          JOINT rightEye
          {
            OFFSET -3.6576 8.04674 8.04672
            CHANNELS 3 Zrotation Xrotation Yrotation
            End Site
            {
              OFFSET 1 0 0
            }
          }
        }
      }
      JOINT rCollar
      {
        OFFSET -2.68224 19.2634 -4.8768
        CHANNELS 3 Zrotation Xrotation Yrotation
        JOINT rShldr
        {
          OFFSET -8.77824 -1.95073 1.46304
          CHANNELS 3 Zrotation Xrotation Yrotation
          JOINT rForeArm
          {
            OFFSET -28.1742 -1.7115 0.48768
            CHANNELS 3 Zrotation Xrotation Yrotation
            JOINT rHand
            {
              OFFSET -22.5879 0.773209 7.07136
              CHANNELS 3 Zrotation Xrotation Yrotation
              JOINT rThumb1
              {
                OFFSET -1.2192 -0.487915 3.41376
                CHANNELS 3 Zrotation Xrotation Yrotation
                JOINT rThumb2
                {
                  OFFSET -3.37035 -0.52449 3.41376
                  CHANNELS 3 Zrotation Xrotation Yrotation
                  End Site
                  {
                    OFFSET -1.78271 -1.18214 1.43049
                  }
                }
              }
              JOINT rIndex1
              {
                OFFSET -7.75947 0.938293 5.60832
                CHANNELS 3 Zrotation Xrotation Yrotation
                JOINT rIndex2
                {
                  OFFSET -2.54057 -0.884171 1.56538
                  CHANNELS 3 Zrotation Xrotation Yrotation
                  End Site
                  {
                    OFFSET -1.62519 -0.234802 1.16502
                  }
                }
              }
              JOINT rMid1
              {
                OFFSET -8.24714 1.18213 3.41376
                CHANNELS 3 Zrotation Xrotation Yrotation
                JOINT rMid2
                {
                  OFFSET -3.10165 -0.590103 1.0647
                  CHANNELS 3 Zrotation Xrotation Yrotation
                  End Site
                  {
                    OFFSET -2.48547 -0.328903 0.83742
                  }
                }
              }
              JOINT rRing1
              {
                OFFSET -8.82822 0.546677 1.51678
                CHANNELS 3 Zrotation Xrotation Yrotation
                JOINT rRing2
                {
                  OFFSET -2.60934 -0.819778 -0.0198488
                  CHANNELS 3 Zrotation Xrotation Yrotation
                  End Site
                  {
                    OFFSET -2.33842 -0.294052 0.168128
                  }
                }
              }
              JOINT rPinky1
              {
                OFFSET -8.27202 -0.0477905 -0.4584
                CHANNELS 3 Zrotation Xrotation Yrotation
                JOINT rPinky2
                {
                  OFFSET -1.82734 -0.647385 -0.700984
                  CHANNELS 3 Zrotation Xrotation Yrotation
                  End Site
                  {
                    OFFSET -1.69225 -0.51767 -0.607171
                  }
                }
              }
            }
          }
        }
      }
      JOINT lCollar
      {
        OFFSET 2.68224 19.2634 -4.8768
        CHANNELS 3 Zrotation Xrotation Yrotation
        JOINT lShldr
        {
          OFFSET 8.77824 -1.95073 1.46304
          CHANNELS 3 Zrotation Xrotation Yrotation
          JOINT lForeArm
          {
            OFFSET 28.1742 -1.7115 0.48768
            CHANNELS 3 Zrotation Xrotation Yrotation
            JOINT lHand
            {
              OFFSET 22.5879 0.773209 7.07136
              CHANNELS 3 Zrotation Xrotation Yrotation
              JOINT lThumb1
              {
                OFFSET 1.2192 -0.487915 3.41376
                CHANNELS 3 Zrotation Xrotation Yrotation
                JOINT lThumb2
                {
                  OFFSET 3.37035 -0.52449 3.41376
                  CHANNELS 3 Zrotation Xrotation Yrotation
                  End Site
                  {
                    OFFSET 1.78271 -1.18214 1.43049
                  }
                }
              }
              JOINT lIndex1
              {
                OFFSET 7.75947 0.938293 5.60832
                CHANNELS 3 Zrotation Xrotation Yrotation
                JOINT lIndex2
                {
                  OFFSET 2.54057 -0.884171 1.56538
                  CHANNELS 3 Zrotation Xrotation Yrotation
                  End Site
                  {
                    OFFSET 1.62519 -0.234802 1.16502
                  }
                }
              }
              JOINT lMid1
              {
                OFFSET 8.24714 1.18213 3.41376
                CHANNELS 3 Zrotation Xrotation Yrotation
                JOINT lMid2
                {
                  OFFSET 3.10165 -0.590103 1.0647
                  CHANNELS 3 Zrotation Xrotation Yrotation
                  End Site
                  {
                    OFFSET 2.48547 -0.328903 0.83742
                  }
                }
              }
              JOINT lRing1
              {
                OFFSET 8.82822 0.546677 1.51678
                CHANNELS 3 Zrotation Xrotation Yrotation
                JOINT lRing2
                {
                  OFFSET 2.60934 -0.819778 -0.0198488
                  CHANNELS 3 Zrotation Xrotation Yrotation
                  End Site
                  {
                    OFFSET 2.33842 -0.294052 0.168128
                  }
                }
              }
              JOINT lPinky1
              {
                OFFSET 8.27202 -0.0477905 -0.4584
                CHANNELS 3 Zrotation Xrotation Yrotation
                JOINT lPinky2
                {
                  OFFSET 1.82734 -0.647385 -0.700984
                  CHANNELS 3 Zrotation Xrotation Yrotation
                  End Site
                  {
                    OFFSET 1.69225 -0.51767 -0.607171
                  }
                }
              }
            }
          }
        }
      }
    }
  }
  JOINT rButtock
  {
    OFFSET -8.77824 4.35084 1.2192
    CHANNELS 3 Zrotation Xrotation Yrotation
    JOINT rThigh
    {
      OFFSET 0 -1.70687 -2.19456
      CHANNELS 3 Zrotation Xrotation Yrotation
      JOINT rShin
      {
        OFFSET 0 -36.8199 0.73152
        CHANNELS 3 Zrotation Xrotation Yrotation
        JOINT rFoot
        {
          OFFSET 0.73152 -45.1104 -5.12064
          CHANNELS 3 Zrotation Xrotation Yrotation
          End Site
          {
            OFFSET -1.1221 -3.69964 12.103
          }
        }
      }
    }
  }
  JOINT lButtock
  {
    OFFSET 8.77824 4.35084 1.2192
    CHANNELS 3 Zrotation Xrotation Yrotation
    JOINT lThigh
    {
      OFFSET 0 -1.70687 -2.19456
      CHANNELS 3 Zrotation Xrotation Yrotation
      JOINT lShin
      {
        OFFSET 0 -36.8199 0.73152
        CHANNELS 3 Zrotation Xrotation Yrotation
        JOINT lFoot
        {
          OFFSET -0.73152 -45.1104 -5.12064
          CHANNELS 3 Zrotation Xrotation Yrotation
          End Site
          {
            OFFSET 1.1221 -3.69964 12.103
          }
        }
      }
    }
  }
}
MOTION
Frames:	5
Frame Time:	0.03333
-2.0655 68.19279999999999 29.2197 -8.472078 -14.091789 11.960112 6.305771 1.733659 0.072141 8.559792 -8.026181 1.765924 13.18475 8.397854 119.652998 7.345745 18.278571 -130.413734 0.002829 0.0 0.00172 0.003635 -0.0 -0.00353 -80.166509 68.371089 83.260886 -124.710745 46.488404 127.34839 2.488186 4.356552 -135.84579 -134.975042 35.057418 122.230335 -121.364259 30.328825 71.957316 89.021122 -50.438457 49.306593 10.748305 -19.047691 -4.724447 -59.503707 48.731166 47.221727 -0.056827 0.168009 0.032114 173.319469 -58.966215 137.174584 -145.118408 0.185467 -179.186755 -153.320653 -19.049717 -176.448589 0.101086 0.257829 0.091593 -147.342744 11.666279 -143.6971 4.048405 18.969836 -4.966488 116.308748 14.090932 -151.246827 113.338957 -25.25244 53.027005 153.682886 -80.877556 169.835602 175.198183 -12.846179 -89.807007 91.124236 12.561256 -34.655012 0.327506 0.530022 -0.185578 6.849591 22.88898 -6.700709 160.573608 -6.359421 -143.197719 172.31012 -31.361527 -143.654955 0.001725 -0.061029 0.017887 154.385154 11.217361 -170.334052 1.14849 -2.914747 1.064812 -14.924178 42.92541 -8.60909 -0.0 0.001576 0.00021 -1.216526 -24.782108 -0.531939 27.536042 46.73298 149.965946 -86.112966 37.017367 -163.460102 -179.991459 75.750741 -0.005844 -157.038475 22.21441 0.0 -10.823032 40.930053 -79.451528 -123.012068 79.063424 -142.664673
-1.3223 68.5723 29.842800000000004 -7.433488 -14.907905 11.955335 3.270972 -0.796338 91.754584 -5.775936 -11.478464 -91.500724 -5.210896 9.741682 -105.842156 4.855465 -0.07666 97.668739 -0.000411 0.0 -0.002176 -0.000411 0.0 -0.002176 2.822167 -21.775507 -4.329258 28.306575 0.895622 3.083703 -17.452319 51.254034 118.762436 -21.152313 -66.114309 -23.431042 -2.60904 2.554271 0.457909 -2.58186 3.494501 3.830084 -77.668362 43.029522 64.538063 -156.358433 3.169065 112.657569 68.982477 -80.154513 40.576242 -171.371324 -28.537218 144.020177 0.003976 1.771319 0.556945 -148.358205 -76.775121 -171.086668 -26.563527 -38.861079 -25.605804 -39.852934 -49.81016 -40.946832 149.905147 22.421624 -154.974939 -136.199101 -46.362931 -154.525637 21.750342 9.802097 -93.605469 18.674022 -70.568627 24.761591 -6.669132 -6.658679 0.642838 38.043821 28.182911 -30.856123 -52.738716 -67.700147 -9.65823 127.650323 28.150976 -104.609083 -0.542518 -1.58972 0.294852 168.907582 -22.163478 -144.330602 67.607117 -72.073765 84.374576 64.289245 83.170681 -82.020301 -12.98696 44.344386 -10.763785 -19.244121 58.460611 -8.968332 -179.990162 75.749033 -0.006731 177.587381 48.157815 -151.41077 -46.29921 -27.983351 -115.070286 -20.245407 17.498412 -133.885091 0.002071 -0.000328 0.001035 28.167307 -48.909199 144.015774 46.821422 -13.970088 99.885809 -133.529744 3.415857 -175.713336
-0.7497 68.7186 30.387900000000002 -5.96044 -15.722797 11.875036 1.871848 -0.806131 92.737425 -5.707905 -12.027288 -92.361285 13.146748 6.321912 109.179706 5.456026 18.672235 -120.587413 -0.000628 -0.0 0.000937 -0.000179 0.0 -0.001411 -142.97342 39.43153 147.389893 62.747418 -72.169412 67.815164 -175.686089 23.77398 43.57301 -134.383454 35.481242 121.660822 -2.814378 2.753958 0.498758 18.667256 -26.793347 -11.252867 37.215699 -57.917835 -0.642812 4.49625 17.951039 0.406272 68.98238 -80.154566 40.577079 -7.584895 26.125747 6.22069 -71.537413 -72.141341 -88.495844 -150.6251 -14.666443 178.21853 -141.698256 1.898988 -138.684895 -84.924083 -52.002782 -84.51054 149.904703 22.421508 -154.974735 -138.710897 -45.073222 -155.325385 108.161004 -23.137435 -81.231514 164.541179 -22.407287 -155.044113 2.608269 2.554628 -0.457536 103.650835 8.228815 -94.763956 -78.322413 -74.34322 -30.813121 159.7249 -20.975258 -115.343272 82.841128 61.112042 -74.53191 7.212123 26.186423 -6.238481 145.119943 0.267226 179.213523 154.176818 -12.524318 177.505554 -12.630604 42.934103 -10.536246 148.536397 13.059597 143.696535 0.0 -0.000833 0.000293 -4.204981 -27.020477 -1.987602 18.033146 52.867132 -154.637601 131.675761 -44.1058 -142.362457 179.996866 75.750475 0.002145 -161.148443 24.983975 -0.0 3.256234 35.277181 30.049779 55.137643 -19.992588 -3.655921
-0.43920000000000003 68.6864 30.848599999999998 -5.094416 -15.953443 11.715831 1.299003 -0.094496 85.840075 -4.674724 -12.925787 -85.43939 12.324094 1.397375 82.299889 0.981465 18.675406 -92.299591 0.002598 -0.0 -0.00271 -0.003854 -0.0 0.00146 -3.767661 17.921133 4.640321 101.44114 -73.385128 71.144008 -62.481517 6.773681 174.746985 -165.619354 -42.876563 164.734756 -12.925641 12.052008 3.309476 5.905617 -4.763811 3.683373 1.505231 -2.485083 -0.828129 -160.685501 -12.946303 110.16453 -36.036334 51.723043 29.832354 -83.148893 64.251261 75.2935 0.004777 1.771054 0.558654 -53.055781 -86.668897 -74.412293 -126.798883 -26.620393 -124.513372 10.809432 22.631492 3.739311 85.537257 68.182098 -88.688927 9.973081 8.274408 -46.512358 -177.380933 67.182976 -55.797054 136.809676 35.161315 -122.373945 -4.530421 -4.514302 0.520305 87.036797 24.385934 -78.583963 8.571623 12.508946 -5.449828 -3.578838 8.988221 -1.223112 0.219896 0.638382 -0.123059 179.656455 -48.712437 -141.478906 0.020297 -1.726136 0.541923 154.69415 6.434973 -171.008202 -0.467443 1.225826 -0.430147 -61.413239 85.768278 23.194206 -0.001163 0.000565 -0.0 -5.137667 -30.667374 -165.732085 -44.047578 -37.672615 -124.321577 -78.956392 -36.56136 -157.313978 0.0 0.000978 -0.001596 24.093495 -46.372877 18.270559 -13.214044 33.495963 -31.62201 18.182917 -62.874832 87.938309
-0.3396 68.4306 31.0396 -4.99653 -15.34232 11.905985 1.603568 -0.17988 87.574897 -5.128679 -12.715015 -87.606385 6.471694 13.574182 168.164181 9.994801 11.012726 179.95149 0.003205 0.0 0.001729 0.003205 0.0 0.001729 -157.677432 -66.559194 175.833917 7.92574 15.489568 -11.413059 -43.195563 -16.04474 -158.68159 -158.936943 -5.221906 150.217933 -0.492291 0.484443 0.076602 10.742958 -15.220919 -7.989903 45.282801 -63.865344 4.306926 39.815195 -35.947357 -2.228682 -151.476498 17.841605 137.538537 -159.349122 6.314658 141.456822 0.004934 1.770426 0.556344 11.382231 -40.166405 -4.889542 -140.003508 -2.493282 -137.116919 9.827642 20.602249 3.091918 143.334495 38.771347 -147.775218 -121.112364 -54.746964 -132.761865 21.498216 6.816763 -103.28018 24.614244 -74.649425 31.444718 -114.5394 -50.246049 -55.7216 163.150271 -15.731345 -119.015155 -169.57066 -65.842949 -109.958828 20.885961 44.801474 -14.439114 82.83955 61.110784 -74.532803 25.212636 49.148038 -20.952702 145.123159 1.975154 179.747393 145.091217 -51.041229 167.227043 24.991545 -37.658887 24.06007 147.124908 13.287908 143.773406 -0.000715 -0.000559 -0.001073 -5.013137 -28.904596 -10.286189 3.834027 50.523893 -87.727582 -154.167568 -67.345125 -54.958198 -179.994478 75.750201 -0.003778 -160.849508 22.903855 -149.345951 -22.051659 -45.489469 -8.360581 89.7877 20.502604 157.705158
